PathFileType	4	(X/Y/Z)	RBDS017\RBDS017runT45.trc
DataRate	CameraRate	NumFrames	NumMarkers	Units	OrigDataRate	OrigDataStartFrame	OrigNumFrames
150.000000	150.000000	4	33	mm	150.000000	1125	4500
Frame#	Time	L.ASIS			L.Heel.Bottom			L.Heel.Lateral			L.Heel.Top			L.Iliac.Crest			L.MT1			L.MT5			L.PSIS			L.Shank.Bottom.Lateral			L.Shank.Bottom.Medial			L.Shank.Top.Lateral			L.Shank.Top.Medial			L.Thigh.Bottom.Lateral			L.Thigh.Bottom.Medial			L.Thigh.Top.Lateral			L.Thigh.Top.Medial			R.ASIS			R.ASY			R.Heel.Bottom			R.Heel.Lateral			R.Heel.Top			R.Iliac.Crest			R.MT1			R.MT5			R.PSIS			R.Shank.Bottom.Lateral			R.Shank.Bottom.Medial			R.Shank.Top.Lateral			R.Shank.Top.Medial			R.Thigh.Bottom.Lateral			R.Thigh.Bottom.Medial			R.Thigh.Top.Lateral			R.Thigh.Top.Medial			
		X1	Y1	Z1	X2	Y2	Z2	X3	Y3	Z3	X4	Y4	Z4	X5	Y5	Z5	X6	Y6	Z6	X7	Y7	Z7	X8	Y8	Z8	X9	Y9	Z9	X10	Y10	Z10	X11	Y11	Z11	X12	Y12	Z12	X13	Y13	Z13	X14	Y14	Z14	X15	Y15	Z15	X16	Y16	Z16	X17	Y17	Z17	X18	Y18	Z18	X19	Y19	Z19	X20	Y20	Z20	X21	Y21	Z21	X22	Y22	Z22	X23	Y23	Z23	X24	Y24	Z24	X25	Y25	Z25	X26	Y26	Z26	X27	Y27	Z27	X28	Y28	Z28	X29	Y29	Z29	X30	Y30	Z30	X31	Y31	Z31	X32	Y32	Z32	X33	Y33	Z33	

1126	7.500000000000001	2268.837337620931	1035.994831842729	869.2689030296794	1597.080445804653	682.344091405115	939.4421190369507	1597.733269469204	662.6116771926967	898.0434121786271	1634.650711689702	657.8129604934257	929.1324796655002	2220.390767464248	1145.510324133757	838.4287755725528	1530.241070184484	462.6024569597	944.8825463722362	1511.352719157295	521.9017257266191	849.6650916155588	2100.367349199682	1109.127879155358	946.1504792665809	1713.490763446207	586.1275615446377	854.24243135884	1719.372291568252	624.8913390247981	893.0588071796225	1792.184952143971	589.7316481312927	838.5205236416283	1798.374145869892	628.2704858518922	874.9449873636868	2101.628072311089	656.0130636415712	801.0829830396279	2041.524020843936	662.0046365704543	841.5645057101856	2109.579100906548	766.1029464171958	802.4202966353571	2054.786791280385	771.7996285504012	843.4631396994927	2249.903505112484	1044.700858471627	1146.595045486896	2518.356937242711	100.5253824988435	1101.449883961569	2332.704882752536	37.91574874958383	1042.569609575272	2346.893628928281	50.50056987030905	1090.047550467858	2336.552325166292	82.70303349842354	1055.733684133588	2186.455545931664	1130.338636435656	1187.994712045897	2551.420145360371	85.27909058079325	1054.740447219342	2502.234363444303	44.23339464611811	1152.951983720521	2089.273072880574	1103.440343059394	1046.798064226383	2364.947074999367	195.4766562130207	1125.650587943061	2333.232445740553	196.1693178812934	1085.310009562434	2346.297196501936	277.1677764821213	1139.635145912195	2312.133191582759	272.9574951986518	1098.364035657121	2292.052658758098	661.8612141890968	1164.879718691933	2240.859119247061	635.975679120139	1119.859680747962	2233.422336828066	754.125980248602	1174.280576373674	2184.292240774205	729.5196479830807	1132.57276523578	
1127	7.506666666666667	2268.431438747028	1029.555941525446	870.5080712496682	1616.098402065576	689.0678590665184	941.7715885701828	1616.439251675764	669.8263852883186	900.2062372112739	1652.956955884179	663.5008244611316	931.4403059207261	2221.805975536557	1138.036555067553	838.3240706869072	1542.763514745324	471.0977120623339	943.6451030442153	1526.326263127424	532.3330630239141	849.0560532276265	2099.089708393585	1102.660581139952	945.5261209726807	1729.53851788981	589.9297356997023	854.8900128553047	1737.227372043756	627.7007130061291	894.3390377384571	1808.215769018881	590.5719691551749	838.8069713747594	1816.210758466421	628.0253122456526	875.9852585799393	2109.99077302655	647.8944031136343	799.1878335285745	2050.228684701797	651.7701140807243	840.2944047110226	2114.903928985604	758.1339483247867	801.3862539147873	2060.266999758048	761.920346771868	842.777418639739	2248.67590354709	1038.522351989856	1147.403258689664	2496.234966001352	92.30215091473433	1096.950384998323	2307.782168218726	35.62583347097357	1039.695537152257	2322.597996683542	48.94902745793569	1086.639266283854	2313.831783950007	80.50989876739472	1051.372187131898	2185.614066612529	1123.598121251602	1188.183055459205	2528.996707130528	74.65950405133296	1051.028989735786	2477.515114852603	39.02582007538913	1150.507296194176	2087.999712192153	1097.560816611974	1046.242461131973	2348.880426137706	190.2363689078203	1121.842602684671	2316.300070265314	192.8404435110714	1082.483990273211	2334.201375822194	272.3523160191048	1137.026762339066	2299.003055680882	270.272030740083	1096.685994208904	2289.701815822597	656.7397317162934	1164.503079350795	2238.464253001003	630.9613057468412	1119.479146571587	2231.015306363726	748.9065975214672	1174.272946101898	2181.792599657249	724.3877147799759	1132.579740957107	
1128	7.513333333333334	2267.661152499885	1022.744610982189	871.7503547342026	1635.261514761975	694.0108160093425	943.6710147055785	1635.509842968431	675.1794258616103	901.9849492608464	1671.565000903326	667.6436020357742	933.4773014034515	2223.261304807858	1130.092126398486	838.2569314191109	1556.880739244594	477.5097698089477	942.4756791092115	1542.749555880081	540.2753142895237	848.3307497103023	2097.45638761215	1096.369002336348	945.2161690043665	1746.459191459553	592.4955915339949	855.4024518305438	1755.766851884781	629.2824616184256	895.4567076845857	1825.049042379661	590.4682065748557	838.9813296643613	1834.655309445465	626.8437925869097	876.8827651735434	2118.915736615426	640.0785799166406	797.3811394575915	2059.564615388911	641.7405513762343	839.0847427163981	2120.558567198736	750.3903689918407	800.3946003976876	2066.1339154709	752.1769361526458	842.1202670407702	2247.172677464839	1032.089544351429	1148.174643384978	2472.117670527003	85.472943614502	1092.332297515301	2281.073593156425	33.90266735836627	1037.036609408459	2296.553207927146	48.26737859578378	1083.336437027652	2289.211549956146	78.92271435322638	1046.961013267957	2184.989735062446	1116.423951107396	1188.371751588842	2504.607311131273	65.46800466246654	1047.364521351126	2451.054443636066	35.38015639843874	1148.175582994151	2086.451291685572	1091.983551436684	1045.900673240479	2331.471796887424	185.8869474628256	1117.811489930335	2297.955826192092	190.5753334305549	1079.578083267632	2321.154943322691	268.3168103893364	1134.240999021839	2284.832965725351	268.56131015543	1094.992860753089	2287.222017318939	651.7894149461005	1164.053078331251	2235.983093134635	626.155230126679	1118.928787313516	2228.444914055724	743.8318762753531	1174.243805229663	2179.14123383863	719.4123458775852	1132.532020798719	
1129	7.52	2266.479603073954	1015.694593062104	872.9583671247137	1654.318996038388	697.2367565888111	945.0089379885809	1654.66570747305	678.6850773547669	903.2685405978494	1690.252204874449	670.3147587922316	935.1063069381552	2224.556737725551	1121.864660849837	838.2257047077104	1572.458386545616	481.7762144919311	941.5039573346165	1560.354883978738	545.5750227811371	847.5799150373898	2095.465005923284	1090.405333864652	945.2317983451809	1764.094947077295	593.8360389688766	855.7483243211519	1774.795894030683	629.7266777003144	896.3336261594842	1842.557336367711	589.4947024924187	839.0168262363387	1853.547203349088	624.8829410749723	877.5594349232659	2128.467488461759	632.8146210842347	795.7254811850394	2069.574416446356	632.1691984811783	837.9563146525279	2126.587853987492	743.0948031355075	799.4893974634051	2072.425992261615	742.7946990691996	841.5052409197821	2245.373798609456	1025.590320407616	1148.978173168468	2446.302412008394	80.19867720690594	1087.850110978608	2253.050956567392	32.70145562632622	1034.6672536983	2269.1753396707	48.33633969010271	1080.258492542348	2263.051165980004	77.87767827544569	1042.690562813721	2184.477424398827	1108.963807263549	1188.585065254719	2478.570236687012	58.00922555594905	1043.964029323028	2423.246595249926	33.28023850311307	1146.05939782013	2084.628302121995	1086.833425597965	1045.761103297616	2312.805513395833	182.4960166089417	1113.737536851212	2278.371776752106	189.3683923952182	1076.699357051789	2307.107215466634	265.092368713309	1131.38026729829	2269.667478334191	267.7733709339105	1093.30857072152	2284.435019193714	647.0338031542354	1163.526935265339	2233.215376273688	621.6253133779472	1118.210077458537	2225.615043878864	738.9893736234353	1174.186899849026	2176.233418333951	714.7207916476474	1132.420226014219	
